<svg xmlns="http://www.w3.org/2000/svg" viewBox="0 0 401.46 401.46"><defs><style>.a,.b{fill:#fff;}.a,.c,.d,.e{stroke:#000;stroke-miterlimit:10;}.c,.d,.e{fill:none;}.d{stroke-dasharray:7.94 7.94;}.e{stroke-dasharray:7.95 7.95;}</style></defs><title>hst8</title><path d="M396.5,2.5v394H2.5V2.5h394m3-3H-.5v400h400V-.5Z" transform="translate(0.73 0.73)"/><line class="a" x1="0.73" y1="201.08" x2="400.73" y2="201.08"/><line class="a" x1="201.08" y1="0.73" x2="201.08" y2="400.73"/><line class="a" x1="0.35" y1="0.48" x2="400.35" y2="400.48"/><line class="b" x1="1.35" y1="18.98" x2="383.35" y2="400.98"/><line class="c" x1="1.35" y1="18.98" x2="4.18" y2="21.81"/><line class="d" x1="9.8" y1="27.42" x2="377.72" y2="395.34"/><line class="c" x1="380.53" y1="398.15" x2="383.35" y2="400.98"/><line class="b" x1="18.35" y1="1.23" x2="401.1" y2="383.23"/><line class="c" x1="18.35" y1="1.23" x2="21.18" y2="4.05"/><line class="e" x1="26.81" y1="9.67" x2="395.46" y2="377.59"/><line class="c" x1="398.27" y1="380.4" x2="401.1" y2="383.23"/><line class="a" x1="400.98" y1="0.35" x2="0.98" y2="400.35"/><line class="b" x1="382.48" y1="1.35" x2="0.48" y2="383.35"/><line class="c" x1="382.48" y1="1.35" x2="379.65" y2="4.18"/><line class="d" x1="374.03" y1="9.8" x2="6.12" y2="377.72"/><line class="c" x1="3.31" y1="380.53" x2="0.48" y2="383.35"/><line class="b" x1="400.23" y1="18.35" x2="18.23" y2="401.1"/><line class="c" x1="400.23" y1="18.35" x2="397.4" y2="21.18"/><line class="e" x1="391.79" y1="26.81" x2="23.86" y2="395.46"/><line class="c" x1="21.05" y1="398.27" x2="18.23" y2="401.1"/></svg>