<svg xmlns="http://www.w3.org/2000/svg" xmlns:xlink="http://www.w3.org/1999/xlink" version="1.1" x="0px" y="0px" viewBox="23.81 223.108 99.968 125.00125" enable-background="new 23.81 223.108 99.968 100.001" xml:space="preserve"><g><path d="M86.121,291.811c6.748,5.265,8.638,14.848,4.318,22.541c-4.454,7.559-14.981,11.474-23.755,6.614   c-8.099-4.725-10.933-15.388-5.939-23.891c4.859-7.424,19.707-23.756,19.707-23.756l0.944-7.828l-7.693,1.079   c0,0-23.081,19.302-23.891,19.707c-2.834,1.619-5.939,2.43-8.908,2.43c-5.939,0-11.608-3.104-14.847-8.504   c-4.724-8.233-1.755-18.762,6.614-23.62c7.423-4.05,16.737-2.7,22.541,4.318c3.644,4.319,6.479,2.564,30.099-7.288l24.836-30.505   h1.484l-11.743,23.891l23.891-11.607v1.484l-30.504,24.7C83.961,284.252,81.666,288.302,86.121,291.811z M49.948,266.301   c-2.565-4.725-8.773-6.209-13.768-3.374c-4.319,2.429-6.749,8.638-3.779,13.497c1.485,2.835,4.994,4.859,8.503,4.859   c1.89,0,3.644-0.405,5.264-1.35C51.027,277.099,52.917,270.89,49.948,266.301z M80.587,296.94c-4.59-2.7-10.934-1.08-13.768,3.914   c-2.564,4.319-1.485,10.798,3.509,13.633c4.725,2.564,10.799,1.079,13.633-3.915c1.35-2.159,1.755-4.994,1.215-7.693   C84.501,300.314,82.881,298.155,80.587,296.94z M88.82,260.362c1.215,0,2.294-1.08,2.294-2.16c0-1.215-1.079-2.295-2.294-2.295   s-2.295,1.08-2.295,2.295C86.525,259.282,87.605,260.362,88.82,260.362z"/></g><text x="23.81" y="338.10900000000004" fill="#000000" font-size="5px" font-weight="bold" font-family="'Helvetica Neue', Helvetica, Arial-Unicode, Arial, Sans-serif">Created by John Caserta</text><text x="23.81" y="343.10900000000004" fill="#000000" font-size="5px" font-weight="bold" font-family="'Helvetica Neue', Helvetica, Arial-Unicode, Arial, Sans-serif">from the Noun Project</text></svg>