<svg xmlns="http://www.w3.org/2000/svg" xmlns:xlink="http://www.w3.org/1999/xlink" viewBox="0 0 60 68.75" version="1.1" x="0px" y="0px"><title>35 -Sewing Machine- (sewing, machine, tailoring, knit, )</title><desc>Created with Sketch.</desc><g stroke="none" stroke-width="1" fill="none" fill-rule="evenodd"><g transform="translate(-585.000000, -762.000000)" fill="#000000"><g transform="translate(585.000000, 762.000000)"><path d="M40.0001,20 C42.7571,20 45.0001,22.243 45.0001,25 C45.0001,27.757 42.7571,30 40.0001,30 C37.2431,30 35.0001,27.757 35.0001,25 C35.0001,22.243 37.2431,20 40.0001,20 M43.0001,42 C43.0001,41.448 43.4481,41 44.0001,41 C44.5521,41 45.0001,41.448 45.0001,42 C45.0001,42.552 44.5521,43 44.0001,43 C43.4481,43 43.0001,42.552 43.0001,42 M39.0001,42 C39.0001,41.448 39.4481,41 40.0001,41 C40.5521,41 41.0001,41.448 41.0001,42 C41.0001,42.552 40.5521,43 40.0001,43 C39.4481,43 39.0001,42.552 39.0001,42 M24.0001,26 L14.0001,26 C13.4481,26 13.0001,25.553 13.0001,25 C13.0001,24.447 13.4481,24 14.0001,24 L24.0001,24 C24.5521,24 25.0001,24.447 25.0001,25 C25.0001,25.553 24.5521,26 24.0001,26 M14.0001,20 L20.0001,20 C20.5521,20 21.0001,20.447 21.0001,21 C21.0001,21.553 20.5521,22 20.0001,22 L14.0001,22 C13.4481,22 13.0001,21.553 13.0001,21 C13.0001,20.447 13.4481,20 14.0001,20 M37.0001,6 L35.0001,6 L35.0001,2 L37.0001,2 M56.0001,47 L53.0001,47 L53.0001,29 C53.0001,28.645 52.9891,28.292 52.9691,27.942 C52.6681,22.731 50.0051,17.989 45.6631,14.933 C43.0521,13.093 40.0711,12.009 37.0001,11.715 L37.0001,8 L38.0001,8 L40.0001,8 C40.5521,8 41.0001,7.553 41.0001,7 C41.0001,6.447 40.5521,6 40.0001,6 L39.0001,6 L39.0001,2 L40.0001,2 C40.5521,2 41.0001,1.553 41.0001,1 C41.0001,0.447 40.5521,0 40.0001,0 L38.0001,0 L34.0001,0 L32.0001,0 C31.4481,0 31.0001,0.447 31.0001,1 C31.0001,1.553 31.4481,2 32.0001,2 L33.0001,2 L33.0001,6 L32.0001,6 C31.4481,6 31.0001,6.447 31.0001,7 C31.0001,7.553 31.4481,8 32.0001,8 L34.0001,8 L35.0001,8 L35.0001,11.637 C33.3961,11.664 31.7831,11.903 30.2011,12.369 L19.6871,15.462 C18.4711,15.818 17.2131,16 15.9481,16 L15.2171,16 C13.2941,16 11.4051,15.477 9.7551,14.487 C8.8901,13.968 8.1361,13.149 7.4511,11.983 C6.7341,10.76 5.4111,10 4.0001,10 C1.7941,10 0.0001,11.794 0.0001,14 L0.0001,37 C0.0001,38.859 1.2801,40.411 3.0001,40.858 L3.0001,44 C3.0001,44.553 3.4481,45 4.0001,45 C4.5521,45 5.0001,44.553 5.0001,44 L5.0001,40.858 C6.7201,40.411 8.0001,38.859 8.0001,37 L8.0001,35 C8.0001,32.243 10.2431,30 13.0001,30 L27.0001,30 C28.0681,30 29.1161,30.283 30.0291,30.818 C32.2051,32.092 33.2681,34.807 32.6141,37.422 L30.2191,47 L4.0001,47 C1.7941,47 0.0001,48.794 0.0001,51 C0.0001,53.206 1.7941,55 4.0001,55 L56.0001,55 C58.2061,55 60.0001,53.206 60.0001,51 C60.0001,48.794 58.2061,47 56.0001,47"/><path d="M40.0001,24 C40.5521,24 41.0001,24.448 41.0001,25 C41.0001,25.552 40.5521,26 40.0001,26 C39.4481,26 39.0001,25.552 39.0001,25 C39.0001,24.448 39.4481,24 40.0001,24 M40.0001,28 C41.6541,28 43.0001,26.654 43.0001,25 C43.0001,23.346 41.6541,22 40.0001,22 C38.3461,22 37.0001,23.346 37.0001,25 C37.0001,26.654 38.3461,28 40.0001,28"/><path d="M54,34 L60,34 L60,32 L54,32 L54,34 Z"/><path d="M57.0001,26 C55.3461,26 54.0001,27.346 54.0001,29 L54.0001,30 L60.0001,30 L60.0001,29 C60.0001,27.346 58.6541,26 57.0001,26"/><path d="M54.0001,41 C54.0001,42.654 55.3461,44 57.0001,44 C58.6541,44 60.0001,42.654 60.0001,41 L60.0001,40 L54.0001,40 L54.0001,41 Z"/><path d="M54,38 L60,38 L60,36 L54,36 L54,38 Z"/></g></g></g><text x="0" y="70" fill="#000000" font-size="5px" font-weight="bold" font-family="'Helvetica Neue', Helvetica, Arial-Unicode, Arial, Sans-serif">Created by Ben Davis</text><text x="0" y="75" fill="#000000" font-size="5px" font-weight="bold" font-family="'Helvetica Neue', Helvetica, Arial-Unicode, Arial, Sans-serif">from the Noun Project</text></svg>