<svg xmlns="http://www.w3.org/2000/svg" viewBox="0 0 99.97 100"><title>scissors</title><path d="M62.31,68.7a17.62,17.62,0,0,1,4.32,22.54c-4.45,7.56-15,11.47-23.75,6.61A17.39,17.39,0,0,1,36.94,74c4.86-7.42,19.71-23.76,19.71-23.76l.94-7.83-7.69,1.08S26.81,62.76,26,63.17a18.08,18.08,0,0,1-8.91,2.43A17.32,17.32,0,0,1,2.25,57.1,17.37,17.37,0,0,1,8.86,33.48,17.8,17.8,0,0,1,31.4,37.79c3.64,4.32,6.48,2.56,30.1-7.29L86.34,0h1.48L76.08,23.89,100,12.28v1.48l-30.5,24.7C60.15,61.14,57.86,65.19,62.31,68.7ZM26.14,43.19c-2.56-4.73-8.77-6.21-13.77-3.37-4.32,2.43-6.75,8.64-3.78,13.5a9.87,9.87,0,0,0,8.5,4.86,10.2,10.2,0,0,0,5.26-1.35C27.22,54,29.11,47.78,26.14,43.19ZM56.78,73.83A10.14,10.14,0,0,0,43,77.75a9.86,9.86,0,1,0,17.14,9.72,10.72,10.72,0,0,0,1.21-7.69A9.31,9.31,0,0,0,56.78,73.83ZM65,37.25a2.23,2.23,0,1,0-2.29-2.16A2.35,2.35,0,0,0,65,37.25Z" transform="translate(0)"/></svg>