<svg xmlns="http://www.w3.org/2000/svg" viewBox="0 0 60 55"><title>sewing</title><path d="M40,20a5,5,0,1,1-5,5,5,5,0,0,1,5-5m3,22a1,1,0,1,1,1,1,1,1,0,0,1-1-1m-4,0a1,1,0,1,1,1,1,1,1,0,0,1-1-1M24,26H14a1,1,0,0,1,0-2H24a1,1,0,0,1,0,2M14,20h6a1,1,0,0,1,0,2H14a1,1,0,0,1,0-2M37,6H35V2h2M56,47H53V29c0-.35,0-.71,0-1.06a17.06,17.06,0,0,0-7.31-13A18,18,0,0,0,37,11.72V8h3a1,1,0,0,0,0-2H39V2h1a1,1,0,0,0,0-2H32a1,1,0,0,0,0,2h1V6H32a1,1,0,0,0,0,2h3v3.64a18,18,0,0,0-4.8.73L19.69,15.46a13.3,13.3,0,0,1-3.74.54h-.73a10.62,10.62,0,0,1-5.46-1.51A6.83,6.83,0,0,1,7.45,12,4,4,0,0,0,0,14V37a4,4,0,0,0,3,3.86V44a1,1,0,0,0,2,0V40.86A4,4,0,0,0,8,37V35a5,5,0,0,1,5-5H27a5.79,5.79,0,0,1,5.61,7.42L30.22,47H4a4,4,0,1,0,0,8H56a4,4,0,1,0,0-8" transform="translate(0)"/><path d="M40,24a1,1,0,1,1-1,1,1,1,0,0,1,1-1m0,4a3,3,0,1,0-3-3,3,3,0,0,0,3,3" transform="translate(0)"/><path d="M54,34h6V32H54Z" transform="translate(0)"/><path d="M57,26a3,3,0,0,0-3,3v1h6V29a3,3,0,0,0-3-3" transform="translate(0)"/><path d="M54,41a3,3,0,0,0,6,0V40H54Z" transform="translate(0)"/><path d="M54,38h6V36H54Z" transform="translate(0)"/></svg>